# xmcd
#
# Track frame offsets: 
#        150
#        22927
#        37189
#        49799
#        63045
#        78118
#        91328
#        107861
#        123480
#        139933
#
# Disc length: 2060 seconds
#
# Revision: 0
# Processed by: cddbd v1.5.1PL2 Copyright (c) Steve Scherf et al.
# Submitted via: ExactAudioCopy v0.95b3
#
DISCID=7d080a0a
DTITLE=Charin and Sunaree - Koo Waan Pleng Ruk Vol 3
DYEAR=2003
DGENRE=Folklore
TTITLE0=Kong jid
TTITLE1=Tur yoo ngai
TTITLE2=Aor sor ruk
TTITLE3=Tui fun rai
TTITLE4=Ruk ngai yam yak
TTITLE5=Wa na wa wadd
TTITLE6=Dum nern sai
TTITLE7=Kwan riem
TTITLE8=Ruen hor ror ruk
TTITLE9=Wann ruk
EXTD=
EXTT0=
EXTT1=
EXTT2=
EXTT3=
EXTT4=
EXTT5=
EXTT6=
EXTT7=
EXTT8=
EXTT9=
PLAYORDER=
